# xmcd
#
# Track frame offsets: 
#        182
#        20277
#        45425
#        65732
#        90045
#        113885
#        128622
#        147060
#        156532
#        172257
#        202145
#        220502
#        245150
#
# Disc length: 3428 seconds
#
# Revision: 1
# Processed by: cddbd v1.5.2PL0 Copyright (c) Steve Scherf et al.
# Submitted via: ExactAudioCopy v0.99pb5
#
DISCID=b60d620d
DTITLE=Béla Fleck and the Flecktones - Three Flew Over the Cuckoo's Ne
DTITLE=st
DYEAR=1993
DGENRE=Fusion
TTITLE0=Vix 9
TTITLE1=At Last We Meet Again
TTITLE2=Spunky and Clorissa
TTITLE3=Bumbershoot
TTITLE4=Blues For Gordon
TTITLE5=Monkey See
TTITLE6=The Message
TTITLE7=Interlude (Return of the Ancient Ones)
TTITLE8=The Drift
TTITLE9=A Celtic Medley: Meridian \\ Traveling Light \\ Salamander's R
TTITLE9=eel
TTITLE10=Peace, Be Still
TTITLE11=The Longing
TTITLE12=For Now
EXTD=
EXTT0=
EXTT1=
EXTT2=
EXTT3=
EXTT4=
EXTT5=
EXTT6=
EXTT7=
EXTT8=
EXTT9=
EXTT10=
EXTT11=
EXTT12=
PLAYORDER=
